<mxfile host="65bd71144e">
    <diagram id="1g0rNTbCZGL9j8gD_4t6" name="Page-1">
        <mxGraphModel dx="426" dy="433" grid="1" gridSize="10" guides="1" tooltips="1" connect="1" arrows="1" fold="1" page="1" pageScale="1" pageWidth="850" pageHeight="1100" math="0" shadow="0">
            <root>
                <mxCell id="0"/>
                <mxCell id="1" parent="0"/>
                <mxCell id="2" value="Microservices team" style="rounded=1;whiteSpace=wrap;html=1;fillColor=#fff2cc;strokeColor=#d6b656;" vertex="1" parent="1">
                    <mxGeometry x="70" y="146" width="190" height="40" as="geometry"/>
                </mxCell>
                <mxCell id="3" value="System design team" style="rounded=1;whiteSpace=wrap;html=1;fillColor=#e1d5e7;strokeColor=#9673a6;rotation=-90;" vertex="1" parent="1">
                    <mxGeometry x="-70" y="136" width="210" height="60" as="geometry"/>
                </mxCell>
                <mxCell id="4" value="Platofrm team" style="rounded=1;whiteSpace=wrap;html=1;fillColor=#dae8fc;strokeColor=#6c8ebf;" vertex="1" parent="1">
                    <mxGeometry x="70" y="226" width="190" height="40" as="geometry"/>
                </mxCell>
                <mxCell id="5" value="" style="endArrow=classic;html=1;" edge="1" parent="1">
                    <mxGeometry width="50" height="50" relative="1" as="geometry">
                        <mxPoint x="166" y="226" as="sourcePoint"/>
                        <mxPoint x="166" y="186" as="targetPoint"/>
                    </mxGeometry>
                </mxCell>
                <mxCell id="8" value="Release&lt;br&gt;team" style="rounded=1;whiteSpace=wrap;html=1;fillColor=#f8cecc;strokeColor=#b85450;" vertex="1" parent="1">
                    <mxGeometry x="220" y="136" width="60" height="60" as="geometry"/>
                </mxCell>
                <mxCell id="9" value="" style="endArrow=classic;html=1;" edge="1" parent="1">
                    <mxGeometry width="50" height="50" relative="1" as="geometry">
                        <mxPoint x="166" y="146" as="sourcePoint"/>
                        <mxPoint x="166" y="106" as="targetPoint"/>
                    </mxGeometry>
                </mxCell>
                <mxCell id="10" value="API team" style="rounded=1;whiteSpace=wrap;html=1;fillColor=#fff2cc;strokeColor=#d6b656;" vertex="1" parent="1">
                    <mxGeometry x="70" y="66" width="190" height="40" as="geometry"/>
                </mxCell>
            </root>
        </mxGraphModel>
    </diagram>
</mxfile>